<svg width="180" height="45" viewBox="0 0 180 45" fill="none" xmlns="http://www.w3.org/2000/svg">
<path fill-rule="evenodd" clip-rule="evenodd" d="M22.5 0C10.0736 0 0 10.0736 0 22.5C0 34.9264 10.0736 45 22.5 45H157.5C169.926 45 180 34.9264 180 22.5C180 10.0736 169.926 0 157.5 0H22.5ZM47.8418 29.2344C51.6602 29.2344 53.916 26.959 53.916 23.1406V21.7051H48.1152V23.4727H51.7578V23.7168C51.7285 25.8555 50.1465 27.3203 47.8613 27.3203C45.1758 27.3203 43.5059 25.2402 43.5059 21.8711C43.5059 18.5605 45.127 16.5879 47.8223 16.5879C49.6582 16.5879 51.0352 17.5938 51.5625 19.3418H53.8086C53.3203 16.5293 50.9473 14.6738 47.8125 14.6738C43.7988 14.6738 41.2695 17.4473 41.2695 21.8906C41.2695 26.4121 43.8086 29.2344 47.8418 29.2344ZM57.5098 22.7305C57.627 21.0996 58.7305 19.9863 60.2539 19.9863C61.7969 19.9863 62.8418 21.0801 62.8906 22.7305H57.5098ZM64.9023 25.8945H62.8809C62.5879 26.8223 61.6211 27.4082 60.3906 27.4082C58.6523 27.4082 57.5 26.1973 57.5 24.3613V24.2344H65.0098V23.4922C65.0098 20.2793 63.1738 18.2578 60.2637 18.2578C57.2949 18.2578 55.3613 20.416 55.3613 23.7363C55.3613 27.0566 57.2754 29.127 60.3516 29.127C62.7344 29.127 64.5996 27.7988 64.9023 25.8945ZM69.4629 16.0117H67.3535V18.3945H65.8887V20.0645H67.3535V26.207C67.3535 28.2578 68.1738 29.0684 70.293 29.0684C70.752 29.0684 71.25 29.0195 71.4844 28.9609V27.291C71.3477 27.3105 70.9863 27.3398 70.7617 27.3398C69.873 27.3398 69.4629 26.9102 69.4629 25.9922V20.0645H71.4941V18.3945H69.4629V16.0117ZM81.8262 18.2676C79.3848 18.2676 77.7148 19.5469 77.7148 21.4121C77.7148 22.877 78.6621 23.8535 80.5762 24.3223L82.4707 24.791C83.584 25.0742 84.0039 25.4258 84.0039 26.0996C84.0039 26.959 83.1738 27.5059 81.8555 27.5059C80.5078 27.5059 79.6875 26.9492 79.5215 25.9336H77.4316C77.5879 27.8477 79.2773 29.127 81.748 29.127C84.3164 29.127 86.1133 27.8184 86.1133 25.9238C86.1133 24.3613 85.3223 23.5898 83.1836 23.0723L81.4258 22.6523C80.3027 22.3789 79.7754 21.9395 79.7754 21.2949C79.7754 20.4551 80.5762 19.8984 81.7773 19.8984C82.9883 19.8984 83.7988 20.4844 83.8867 21.4219H85.8789C85.8301 19.5762 84.1504 18.2676 81.8262 18.2676ZM90.5762 16.0117H88.4668V18.3945H87.002V20.0645H88.4668V26.207C88.4668 28.2578 89.2871 29.0684 91.4062 29.0684C91.8652 29.0684 92.3633 29.0195 92.5977 28.9609V27.291C92.4609 27.3105 92.0996 27.3398 91.875 27.3398C90.9863 27.3398 90.5762 26.9102 90.5762 25.9922V20.0645H92.6074V18.3945H90.5762V16.0117ZM100.762 25.0156C100.762 26.4121 99.5703 27.418 97.998 27.418C96.7773 27.418 95.9863 26.832 95.9863 25.9238C95.9863 24.9863 96.7383 24.4492 98.1836 24.3613L100.762 24.1855V25.0156ZM93.8477 25.9629C93.8477 27.8574 95.3125 29.1074 97.4316 29.1074C98.877 29.1074 100.195 28.3848 100.781 27.2324H100.83V29H102.852V21.7246C102.852 19.625 101.182 18.2578 98.5938 18.2578C96.2109 18.2578 94.4336 19.6445 94.375 21.5195H96.3574C96.543 20.6016 97.3828 20.0059 98.5352 20.0059C99.9512 20.0059 100.762 20.6699 100.762 21.8809V22.7012L97.9004 22.8672C95.2832 23.0332 93.8477 24.1074 93.8477 25.9629ZM104.98 18.3945V29H107.1V22.6719C107.1 21.1777 107.979 20.2109 109.375 20.2109C109.795 20.2109 110.166 20.2695 110.342 20.3379V18.3555C110.176 18.3164 109.912 18.2871 109.6 18.2871C108.35 18.2871 107.373 19 107.041 20.1816H107.002V18.3945H104.98ZM114.443 16.0117H112.334V18.3945H110.869V20.0645H112.334V26.207C112.334 28.2578 113.154 29.0684 115.273 29.0684C115.732 29.0684 116.23 29.0195 116.465 28.9609V27.291C116.328 27.3105 115.967 27.3398 115.742 27.3398C114.854 27.3398 114.443 26.9102 114.443 25.9922V20.0645H116.475V18.3945H114.443V16.0117ZM119.678 22.7305C119.795 21.0996 120.898 19.9863 122.422 19.9863C123.965 19.9863 125.01 21.0801 125.059 22.7305H119.678ZM127.07 25.8945H125.049C124.756 26.8223 123.789 27.4082 122.559 27.4082C120.82 27.4082 119.668 26.1973 119.668 24.3613V24.2344H127.178V23.4922C127.178 20.2793 125.342 18.2578 122.432 18.2578C119.463 18.2578 117.529 20.416 117.529 23.7363C117.529 27.0566 119.443 29.127 122.52 29.127C124.902 29.127 126.768 27.7988 127.07 25.8945ZM128.408 23.6875C128.408 26.9688 130.225 29.1074 132.881 29.1074C134.434 29.1074 135.645 28.4043 136.27 27.2031H136.309V29H138.359V14.2734H136.25V20.1523H136.201C135.596 18.9805 134.385 18.2871 132.861 18.2871C130.225 18.2871 128.408 20.4258 128.408 23.6875ZM130.576 23.6973C130.576 21.5098 131.709 20.084 133.418 20.084C135.117 20.084 136.26 21.5391 136.26 23.6973C136.26 25.8652 135.117 27.3105 133.418 27.3105C131.699 27.3105 130.576 25.8945 130.576 23.6973Z" fill="white"/>
</svg>
