<svg width="242" height="30" viewBox="0 0 242 30" fill="none" xmlns="http://www.w3.org/2000/svg">
<path fill-rule="evenodd" clip-rule="evenodd" d="M15 0C6.71573 0 0 6.71573 0 15C0 23.2843 6.71573 30 15 30H227C235.284 30 242 23.2843 242 15C242 6.71573 235.284 0 227 0H15ZM67.9092 20H69.4404V15.8711H73.6787V14.5791H69.4404V11.4551H74.0684V10.1357H67.9092V20ZM74.7793 16.2881C74.7793 18.626 76.1465 20.0889 78.293 20.0889C80.4395 20.0889 81.7998 18.626 81.7998 16.2881C81.7998 13.9502 80.4326 12.4805 78.293 12.4805C76.1533 12.4805 74.7793 13.957 74.7793 16.2881ZM80.2959 16.2881C80.2959 17.9082 79.5508 18.8584 78.293 18.8584C77.0352 18.8584 76.2832 17.9082 76.2832 16.2881C76.2832 14.6748 77.0352 13.7109 78.293 13.7109C79.5508 13.7109 80.2959 14.668 80.2959 16.2881ZM83.0508 9.69141V20H84.5342V9.69141H83.0508ZM86.1816 9.69141V20H87.665V9.69141H86.1816ZM88.916 16.2881C88.916 18.626 90.2832 20.0889 92.4297 20.0889C94.5762 20.0889 95.9365 18.626 95.9365 16.2881C95.9365 13.9502 94.5693 12.4805 92.4297 12.4805C90.29 12.4805 88.916 13.957 88.916 16.2881ZM94.4326 16.2881C94.4326 17.9082 93.6875 18.8584 92.4297 18.8584C91.1719 18.8584 90.4199 17.9082 90.4199 16.2881C90.4199 14.6748 91.1719 13.7109 92.4297 13.7109C93.6875 13.7109 94.4326 14.668 94.4326 16.2881ZM103.271 20H104.803L106.847 12.5762H105.384L104.003 18.4551H103.976L102.396 12.5762H100.975L99.4023 18.4551H99.375L97.9941 12.5762H96.5176L98.5684 20H100.093L101.658 14.4082H101.692L103.271 20ZM112.938 10.9082H111.461V12.5762H110.436V13.7451H111.461V18.0449C111.461 19.4805 112.035 20.0479 113.519 20.0479C113.84 20.0479 114.188 20.0137 114.353 19.9727V18.8037C114.257 18.8174 114.004 18.8379 113.847 18.8379C113.225 18.8379 112.938 18.5371 112.938 17.8945V13.7451H114.359V12.5762H112.938V10.9082ZM115.672 9.69141V20H117.155V15.748C117.155 14.5586 117.853 13.7656 119.008 13.7656C120.095 13.7656 120.648 14.4355 120.648 15.543V20H122.132V15.2559C122.132 13.5811 121.154 12.4941 119.521 12.4941C118.386 12.4941 117.62 12.9521 117.176 13.8271H117.142V9.69141H115.672ZM124.791 15.6113C124.873 14.4697 125.646 13.6904 126.712 13.6904C127.792 13.6904 128.523 14.4561 128.558 15.6113H124.791ZM129.966 17.8262H128.551C128.346 18.4756 127.669 18.8857 126.808 18.8857C125.591 18.8857 124.784 18.0381 124.784 16.7529V16.6641H130.041V16.1445C130.041 13.8955 128.756 12.4805 126.719 12.4805C124.641 12.4805 123.287 13.9912 123.287 16.3154C123.287 18.6396 124.627 20.0889 126.78 20.0889C128.448 20.0889 129.754 19.1592 129.966 17.8262ZM138.976 17.2109C138.976 18.1885 138.142 18.8926 137.041 18.8926C136.187 18.8926 135.633 18.4824 135.633 17.8467C135.633 17.1904 136.159 16.8145 137.171 16.7529L138.976 16.6299V17.2109ZM134.136 17.874C134.136 19.2002 135.161 20.0752 136.645 20.0752C137.656 20.0752 138.579 19.5693 138.989 18.7627H139.023V20H140.438V14.9072C140.438 13.4375 139.27 12.4805 137.458 12.4805C135.79 12.4805 134.546 13.4512 134.505 14.7637H135.893C136.022 14.1211 136.61 13.7041 137.417 13.7041C138.408 13.7041 138.976 14.1689 138.976 15.0166V15.5908L136.973 15.707C135.141 15.8232 134.136 16.5752 134.136 17.874ZM146.844 20H148.259V12.5762H146.775V16.8555C146.775 18.0312 146.099 18.8037 144.991 18.8037C143.918 18.8037 143.378 18.1953 143.378 17.0537V12.5762H141.895V17.334C141.895 19.0361 142.879 20.082 144.499 20.082C145.634 20.082 146.386 19.6104 146.816 18.7285H146.844V20ZM151.697 10.9082H150.221V12.5762H149.195V13.7451H150.221V18.0449C150.221 19.4805 150.795 20.0479 152.278 20.0479C152.6 20.0479 152.948 20.0137 153.112 19.9727V18.8037C153.017 18.8174 152.764 18.8379 152.606 18.8379C151.984 18.8379 151.697 18.5371 151.697 17.8945V13.7451H153.119V12.5762H151.697V10.9082ZM154.432 9.69141V20H155.915V15.748C155.915 14.5586 156.612 13.7656 157.768 13.7656C158.854 13.7656 159.408 14.4355 159.408 15.543V20H160.892V15.2559C160.892 13.5811 159.914 12.4941 158.28 12.4941C157.146 12.4941 156.38 12.9521 155.936 13.8271H155.901V9.69141H154.432ZM162.047 16.2881C162.047 18.626 163.414 20.0889 165.561 20.0889C167.707 20.0889 169.067 18.626 169.067 16.2881C169.067 13.9502 167.7 12.4805 165.561 12.4805C163.421 12.4805 162.047 13.957 162.047 16.2881ZM167.563 16.2881C167.563 17.9082 166.818 18.8584 165.561 18.8584C164.303 18.8584 163.551 17.9082 163.551 16.2881C163.551 14.6748 164.303 13.7109 165.561 13.7109C166.818 13.7109 167.563 14.668 167.563 16.2881ZM171.672 12.5762H170.257V20H171.74V15.5703C171.74 14.5244 172.355 13.8477 173.333 13.8477C173.627 13.8477 173.887 13.8887 174.01 13.9365V12.5488C173.894 12.5215 173.709 12.501 173.49 12.501C172.615 12.501 171.932 13 171.699 13.8271H171.672V12.5762Z" fill="white"/>
</svg>
