<svg width="880" height="45" viewBox="0 0 880 45" fill="none" xmlns="http://www.w3.org/2000/svg">
<path fill-rule="evenodd" clip-rule="evenodd" d="M22.5 0C10.0736 0 0 10.0736 0 22.5C0 34.9264 10.0736 45 22.5 45H857.5C869.926 45 880 34.9264 880 22.5C880 10.0736 869.926 0 857.5 0H22.5ZM406.363 29.2344C410.182 29.2344 412.438 26.959 412.438 23.1406V21.7051H406.637V23.4727H410.279V23.7168C410.25 25.8555 408.668 27.3203 406.383 27.3203C403.697 27.3203 402.027 25.2402 402.027 21.8711C402.027 18.5605 403.648 16.5879 406.344 16.5879C408.18 16.5879 409.557 17.5938 410.084 19.3418H412.33C411.842 16.5293 409.469 14.6738 406.334 14.6738C402.32 14.6738 399.791 17.4473 399.791 21.8906C399.791 26.4121 402.33 29.2344 406.363 29.2344ZM416.031 22.7305C416.148 21.0996 417.252 19.9863 418.775 19.9863C420.318 19.9863 421.363 21.0801 421.412 22.7305H416.031ZM423.424 25.8945H421.402C421.109 26.8223 420.143 27.4082 418.912 27.4082C417.174 27.4082 416.021 26.1973 416.021 24.3613V24.2344H423.531V23.4922C423.531 20.2793 421.695 18.2578 418.785 18.2578C415.816 18.2578 413.883 20.416 413.883 23.7363C413.883 27.0566 415.797 29.127 418.873 29.127C421.256 29.127 423.121 27.7988 423.424 25.8945ZM425.24 18.3945V29H427.359V22.877C427.359 21.207 428.316 20.0938 429.918 20.0938C431.471 20.0938 432.213 20.9922 432.213 22.6035V29H434.332V22.2031C434.332 19.7617 432.994 18.2773 430.65 18.2773C429.01 18.2773 427.945 18.9316 427.301 20.1816H427.262V18.3945H425.24ZM438.121 22.7305C438.238 21.0996 439.342 19.9863 440.865 19.9863C442.408 19.9863 443.453 21.0801 443.502 22.7305H438.121ZM445.514 25.8945H443.492C443.199 26.8223 442.232 27.4082 441.002 27.4082C439.264 27.4082 438.111 26.1973 438.111 24.3613V24.2344H445.621V23.4922C445.621 20.2793 443.785 18.2578 440.875 18.2578C437.906 18.2578 435.973 20.416 435.973 23.7363C435.973 27.0566 437.887 29.127 440.963 29.127C443.346 29.127 445.211 27.7988 445.514 25.8945ZM447.33 18.3945V29H449.449V22.6719C449.449 21.1777 450.328 20.2109 451.725 20.2109C452.145 20.2109 452.516 20.2695 452.691 20.3379V18.3555C452.525 18.3164 452.262 18.2871 451.949 18.2871C450.699 18.2871 449.723 19 449.391 20.1816H449.352V18.3945H447.33ZM460.279 25.0156C460.279 26.4121 459.088 27.418 457.516 27.418C456.295 27.418 455.504 26.832 455.504 25.9238C455.504 24.9863 456.256 24.4492 457.701 24.3613L460.279 24.1855V25.0156ZM453.365 25.9629C453.365 27.8574 454.83 29.1074 456.949 29.1074C458.395 29.1074 459.713 28.3848 460.299 27.2324H460.348V29H462.369V21.7246C462.369 19.625 460.699 18.2578 458.111 18.2578C455.729 18.2578 453.951 19.6445 453.893 21.5195H455.875C456.061 20.6016 456.9 20.0059 458.053 20.0059C459.469 20.0059 460.279 20.6699 460.279 21.8809V22.7012L457.418 22.8672C454.801 23.0332 453.365 24.1074 453.365 25.9629ZM467.242 16.0117H465.133V18.3945H463.668V20.0645H465.133V26.207C465.133 28.2578 465.953 29.0684 468.072 29.0684C468.531 29.0684 469.029 29.0195 469.264 28.9609V27.291C469.127 27.3105 468.766 27.3398 468.541 27.3398C467.652 27.3398 467.242 26.9102 467.242 25.9922V20.0645H469.273V18.3945H467.242V16.0117ZM472.477 22.7305C472.594 21.0996 473.697 19.9863 475.221 19.9863C476.764 19.9863 477.809 21.0801 477.857 22.7305H472.477ZM479.869 25.8945H477.848C477.555 26.8223 476.588 27.4082 475.357 27.4082C473.619 27.4082 472.467 26.1973 472.467 24.3613V24.2344H479.977V23.4922C479.977 20.2793 478.141 18.2578 475.23 18.2578C472.262 18.2578 470.328 20.416 470.328 23.7363C470.328 27.0566 472.242 29.127 475.318 29.127C477.701 29.127 479.566 27.7988 479.869 25.8945Z" fill="white"/>
</svg>
