<svg width="198" height="24" viewBox="0 0 198 24" fill="none" xmlns="http://www.w3.org/2000/svg">
<path d="M183.641 10.8594C183.641 7.875 186.312 5.82812 190.219 5.82812C193.938 5.82812 196.625 7.92188 196.703 10.875H193.516C193.375 9.375 192.078 8.4375 190.141 8.4375C188.219 8.4375 186.938 9.32812 186.938 10.6719C186.938 11.7031 187.781 12.4062 189.578 12.8438L192.391 13.5156C195.812 14.3438 197.078 15.5781 197.078 18.0781C197.078 21.1094 194.203 23.2031 190.094 23.2031C186.141 23.2031 183.438 21.1562 183.188 18.0938H186.531C186.797 19.7188 188.109 20.6094 190.266 20.6094C192.375 20.6094 193.703 19.7344 193.703 18.3594C193.703 17.2812 193.031 16.7188 191.25 16.2656L188.219 15.5156C185.156 14.7656 183.641 13.2031 183.641 10.8594Z" fill="white"/>
<path d="M172.75 20.4688C175.266 20.4688 177.172 18.8594 177.172 16.625V15.2969L173.047 15.5781C170.734 15.7188 169.531 16.5781 169.531 18.0781C169.531 19.5312 170.797 20.4688 172.75 20.4688ZM171.844 23.1719C168.453 23.1719 166.109 21.1719 166.109 18.1406C166.109 15.1719 168.406 13.4531 172.594 13.1875L177.172 12.9219V11.6094C177.172 9.67188 175.875 8.60938 173.609 8.60938C171.766 8.60938 170.422 9.5625 170.125 11.0312H166.953C167.047 8.03125 169.891 5.8125 173.703 5.8125C177.844 5.8125 180.516 8 180.516 11.3594V23H177.281V20.1719H177.203C176.266 22.0156 174.156 23.1719 171.844 23.1719Z" fill="white"/>
<path d="M165.172 6.03125L159.062 23H155.453L149.328 6.03125H152.906L157.234 19.6562H157.312L161.656 6.03125H165.172Z" fill="white"/>
<path d="M132.828 23V6.03125H136.062V8.89062H136.125C137.156 6.89062 138.859 5.84375 141.484 5.84375C145.234 5.84375 147.375 8.21875 147.375 12.125V23H143.984V12.7656C143.984 10.1875 142.797 8.75 140.312 8.75C137.75 8.75 136.219 10.5312 136.219 13.2031V23H132.828Z" fill="white"/>
<path d="M121.656 20.4688C124.172 20.4688 126.078 18.8594 126.078 16.625V15.2969L121.953 15.5781C119.641 15.7188 118.438 16.5781 118.438 18.0781C118.438 19.5312 119.703 20.4688 121.656 20.4688ZM120.75 23.1719C117.359 23.1719 115.016 21.1719 115.016 18.1406C115.016 15.1719 117.312 13.4531 121.5 13.1875L126.078 12.9219V11.6094C126.078 9.67188 124.781 8.60938 122.516 8.60938C120.672 8.60938 119.328 9.5625 119.031 11.0312H115.859C115.953 8.03125 118.797 5.8125 122.609 5.8125C126.75 5.8125 129.422 8 129.422 11.3594V23H126.188V20.1719H126.109C125.172 22.0156 123.062 23.1719 120.75 23.1719Z" fill="white"/>
<path d="M103.375 23.375C97.0469 23.375 93.0469 18.9062 93.0469 11.7188C93.0469 4.57812 97.0781 0.078125 103.375 0.078125C108.484 0.078125 112.344 3.21875 112.938 7.92188H109.469C108.844 5.03125 106.438 3.14062 103.375 3.14062C99.2812 3.14062 96.625 6.5 96.625 11.7188C96.625 16.9844 99.25 20.3125 103.391 20.3125C106.531 20.3125 108.766 18.7031 109.469 15.9844H112.953C112.094 20.6406 108.562 23.375 103.375 23.375Z" fill="white"/>
<path d="M66.3281 23V6.03125H69.5625V8.90625H69.625C70.4062 7 72.2344 5.84375 74.4531 5.84375C76.8125 5.84375 78.5156 7.03125 79.2031 9.14062H79.2812C80.1719 7.09375 82.1719 5.84375 84.5938 5.84375C87.9375 5.84375 90.125 8.04688 90.125 11.4375V23H86.75V12.25C86.75 10.0312 85.5469 8.75 83.4375 8.75C81.3594 8.75 79.8906 10.2969 79.8906 12.4688V23H76.5625V11.9688C76.5625 10 75.2969 8.75 73.3125 8.75C71.2188 8.75 69.7188 10.375 69.7188 12.5938V23H66.3281Z" fill="white"/>
<path d="M55.1562 20.4688C57.6719 20.4688 59.5781 18.8594 59.5781 16.625V15.2969L55.4531 15.5781C53.1406 15.7188 51.9375 16.5781 51.9375 18.0781C51.9375 19.5312 53.2031 20.4688 55.1562 20.4688ZM54.25 23.1719C50.8594 23.1719 48.5156 21.1719 48.5156 18.1406C48.5156 15.1719 50.8125 13.4531 55 13.1875L59.5781 12.9219V11.6094C59.5781 9.67188 58.2812 8.60938 56.0156 8.60938C54.1719 8.60938 52.8281 9.5625 52.5312 11.0312H49.3594C49.4531 8.03125 52.2969 5.8125 56.1094 5.8125C60.25 5.8125 62.9219 8 62.9219 11.3594V23H59.6875V20.1719H59.6094C58.6719 22.0156 56.5625 23.1719 54.25 23.1719Z" fill="white"/>
<path d="M38.9219 8.57812C36.4844 8.57812 34.7188 10.3594 34.5312 12.9688H43.1406C43.0625 10.3281 41.3906 8.57812 38.9219 8.57812ZM43.125 18.0312H46.3594C45.875 21.0781 42.8906 23.2031 39.0781 23.2031C34.1562 23.2031 31.0938 19.8906 31.0938 14.5781C31.0938 9.26562 34.1875 5.8125 38.9375 5.8125C43.5938 5.8125 46.5312 9.04688 46.5312 14.1875V15.375H34.5156V15.5781C34.5156 18.5156 36.3594 20.4531 39.1406 20.4531C41.1094 20.4531 42.6562 19.5156 43.125 18.0312Z" fill="white"/>
<path d="M21.8281 23V6.03125H25.0625V8.89062H25.125C25.6562 7 27.2188 5.85938 29.2188 5.85938C29.7188 5.85938 30.1406 5.90625 30.4062 5.96875V9.14062C30.125 9.03125 29.5312 8.9375 28.8594 8.9375C26.625 8.9375 25.2188 10.4844 25.2188 12.875V23H21.8281Z" fill="white"/>
<path d="M0.078125 0.453125H8.15625C14.875 0.453125 18.8281 4.57812 18.8281 11.6875C18.8281 18.8125 14.875 23 8.15625 23H0.078125V0.453125ZM3.57812 3.46875V19.9688H7.82812C12.6094 19.9688 15.2656 17.0469 15.2656 11.7188C15.2656 6.40625 12.6094 3.46875 7.82812 3.46875H3.57812Z" fill="white"/>
</svg>
